<svg xmlns="http://www.w3.org/2000/svg" xmlns:xlink="http://www.w3.org/1999/xlink" width="500" zoomAndPan="magnify" viewBox="0 0 375 374.999991" height="500" preserveAspectRatio="xMidYMid meet" version="1.0"><defs><clipPath id="ef8a7488e0"><path d="M 110.550781 135 L 264.300781 135 L 264.300781 182 L 110.550781 182 Z M 110.550781 135 " clip-rule="nonzero"/></clipPath><clipPath id="9ecf0a586a"><path d="M 110.550781 224 L 264.300781 224 L 264.300781 270 L 110.550781 270 Z M 110.550781 224 " clip-rule="nonzero"/></clipPath><clipPath id="07a2ccfc39"><path d="M 110.550781 105 L 264.300781 105 L 264.300781 138 L 110.550781 138 Z M 110.550781 105 " clip-rule="nonzero"/></clipPath><clipPath id="1649094b6d"><path d="M 110.550781 179 L 264.300781 179 L 264.300781 226 L 110.550781 226 Z M 110.550781 179 " clip-rule="nonzero"/></clipPath></defs><rect x="-37.5" width="450" fill="#ffffff" y="-37.499999" height="449.999989" fill-opacity="1"/><rect x="-37.5" width="450" fill="#ffffff" y="-37.499999" height="449.999989" fill-opacity="1"/><rect x="-37.5" width="450" fill="#ffffff" y="-37.499999" height="449.999989" fill-opacity="1"/><g clip-path="url(#ef8a7488e0)"><path fill="#010101" d="M 110.835938 135.929688 L 110.835938 165.472656 C 110.835938 166.421875 114.378906 171.203125 130.75 175.589844 C 145.828125 179.628906 165.957031 181.855469 187.425781 181.855469 C 237.175781 181.855469 264.015625 170.226562 264.015625 165.472656 L 264.015625 135.929688 C 247.875 144.886719 216.878906 149.085938 187.425781 149.085938 C 157.972656 149.085938 126.976562 144.886719 110.835938 135.929688 Z M 110.835938 135.929688 " fill-opacity="1" fill-rule="nonzero"/></g><g clip-path="url(#9ecf0a586a)"><path fill="#010101" d="M 110.835938 224.042969 L 110.835938 253.585938 C 110.835938 254.535156 114.378906 259.320312 130.75 263.707031 C 145.828125 267.746094 165.957031 269.972656 187.425781 269.972656 C 208.894531 269.972656 229.023438 267.746094 244.101562 263.707031 C 260.46875 259.320312 264.015625 254.535156 264.015625 253.585938 L 264.015625 224.042969 C 247.875 233.003906 216.878906 237.207031 187.425781 237.207031 C 157.972656 237.207031 126.976562 233.003906 110.835938 224.042969 Z M 110.835938 224.042969 " fill-opacity="1" fill-rule="nonzero"/></g><g clip-path="url(#07a2ccfc39)"><path fill="#010101" d="M 130.75 131.53125 C 145.824219 135.570312 165.957031 137.792969 187.425781 137.792969 C 208.898438 137.792969 229.023438 135.570312 244.101562 131.53125 C 260.46875 127.144531 264.015625 122.363281 264.015625 121.414062 C 264.015625 120.460938 260.46875 115.679688 244.101562 111.289062 C 229.023438 107.253906 208.894531 105.027344 187.425781 105.027344 C 165.957031 105.027344 145.828125 107.25 130.75 111.289062 C 114.378906 115.675781 110.835938 120.460938 110.835938 121.414062 C 110.835938 122.363281 114.378906 127.144531 130.75 131.53125 Z M 130.75 131.53125 " fill-opacity="1" fill-rule="nonzero"/></g><g clip-path="url(#1649094b6d)"><path fill="#010101" d="M 110.835938 179.984375 L 110.835938 209.527344 C 110.835938 210.476562 114.378906 215.261719 130.75 219.648438 C 145.828125 223.6875 165.957031 225.914062 187.425781 225.914062 C 208.894531 225.914062 229.023438 223.6875 244.101562 219.648438 C 260.46875 215.261719 264.015625 210.476562 264.015625 209.527344 L 264.015625 179.988281 C 247.875 188.945312 216.878906 193.144531 187.425781 193.144531 C 157.972656 193.144531 126.976562 188.945312 110.835938 179.984375 Z M 110.835938 179.984375 " fill-opacity="1" fill-rule="nonzero"/></g></svg>