<svg xmlns="http://www.w3.org/2000/svg" xmlns:xlink="http://www.w3.org/1999/xlink" width="500" zoomAndPan="magnify" viewBox="0 0 375 374.999991" height="500" preserveAspectRatio="xMidYMid meet" version="1.0"><defs><clipPath id="7a4aa46104"><path d="M 75 97.5 L 300 97.5 L 300 277.5 L 75 277.5 Z M 75 97.5 " clip-rule="nonzero"/></clipPath></defs><path fill="#000000" d="M 96.277344 208.457031 C 91.5 208.457031 87.605469 212.347656 87.605469 217.125 C 87.605469 221.90625 91.5 225.800781 96.277344 225.800781 C 101.058594 225.800781 104.949219 221.910156 104.949219 217.125 C 104.949219 212.34375 101.058594 208.457031 96.277344 208.457031 Z M 96.277344 220.808594 C 94.25 220.808594 92.597656 219.15625 92.597656 217.125 C 92.597656 215.089844 94.246094 213.441406 96.277344 213.441406 C 98.308594 213.441406 99.960938 215.09375 99.960938 217.125 C 99.960938 219.15625 98.3125 220.808594 96.277344 220.808594 Z M 96.277344 220.808594 " fill-opacity="1" fill-rule="nonzero"/><g clip-path="url(#7a4aa46104)"><path fill="#000000" d="M 286.429688 182.617188 L 286.429688 106.480469 C 286.429688 101.609375 282.46875 97.648438 277.601562 97.648438 L 83.832031 97.648438 C 78.960938 97.648438 75 101.609375 75 106.480469 L 75 224.316406 C 75 229.199219 78.960938 233.171875 83.832031 233.171875 L 155.628906 233.171875 L 155.628906 254.554688 L 154.511719 254.554688 C 148.15625 254.554688 142.988281 259.722656 142.988281 266.078125 C 142.988281 272.429688 148.15625 277.601562 154.511719 277.601562 L 206.933594 277.601562 C 213.285156 277.601562 218.453125 272.433594 218.453125 266.078125 C 218.453125 259.722656 213.285156 254.554688 206.933594 254.554688 L 205.8125 254.554688 L 205.8125 233.171875 L 220.625 233.171875 C 227.703125 246.519531 241.730469 255.640625 257.863281 255.640625 C 281.097656 255.640625 300.003906 236.738281 300.003906 213.503906 C 300.003906 201.296875 294.753906 190.320312 286.433594 182.617188 Z M 79.988281 106.480469 C 79.988281 104.359375 81.710938 102.636719 83.832031 102.636719 L 277.601562 102.636719 C 279.71875 102.636719 281.441406 104.359375 281.441406 106.480469 L 281.441406 178.597656 C 280.332031 177.84375 279.179688 177.144531 278 176.5 L 278 114.414062 C 278 109.832031 274.273438 106.105469 269.691406 106.105469 L 91.761719 106.105469 C 87.167969 106.105469 83.429688 109.832031 83.429688 114.414062 L 83.429688 201.09375 L 79.988281 201.09375 Z M 217.589844 201.09375 L 88.421875 201.09375 L 88.421875 114.414062 C 88.421875 112.582031 89.917969 111.09375 91.761719 111.09375 L 269.691406 111.09375 C 271.519531 111.09375 273.011719 112.582031 273.011719 114.414062 L 273.011719 174.222656 C 268.300781 172.402344 263.203125 171.359375 257.859375 171.359375 C 238.941406 171.359375 222.898438 183.894531 217.589844 201.09375 Z M 206.933594 259.542969 C 210.535156 259.542969 213.464844 262.476562 213.464844 266.078125 C 213.464844 269.679688 210.535156 272.613281 206.933594 272.613281 L 154.511719 272.613281 C 150.910156 272.613281 147.976562 269.679688 147.976562 266.078125 C 147.976562 262.476562 150.910156 259.542969 154.511719 259.542969 Z M 160.621094 254.554688 L 160.621094 233.171875 L 200.824219 233.171875 L 200.824219 254.554688 Z M 203.371094 228.183594 C 203.351562 228.183594 203.335938 228.175781 203.324219 228.175781 L 158.128906 228.175781 C 158.109375 228.175781 158.09375 228.183594 158.082031 228.183594 L 83.832031 228.183594 C 81.710938 228.183594 79.988281 226.449219 79.988281 224.316406 L 79.988281 206.082031 L 216.414062 206.082031 C 215.984375 208.496094 215.71875 210.96875 215.71875 213.503906 C 215.71875 218.671875 216.699219 223.605469 218.410156 228.183594 L 203.367188 228.183594 Z M 257.863281 250.652344 C 237.378906 250.652344 220.710938 233.988281 220.710938 213.503906 C 220.710938 193.019531 237.378906 176.351562 257.863281 176.351562 C 278.347656 176.351562 295.011719 193.019531 295.011719 213.503906 C 295.011719 233.988281 278.347656 250.652344 257.863281 250.652344 Z M 257.863281 250.652344 " fill-opacity="1" fill-rule="nonzero"/></g><path fill="#000000" d="M 263.304688 240.523438 L 252.414062 240.523438 C 251.039062 240.523438 249.921875 239.40625 249.921875 238.03125 L 249.921875 232.558594 C 248.292969 231.875 246.761719 230.988281 245.347656 229.898438 L 240.589844 232.644531 C 240.015625 232.972656 239.328125 233.0625 238.695312 232.894531 C 238.058594 232.722656 237.511719 232.304688 237.183594 231.730469 L 231.738281 222.300781 C 231.046875 221.109375 231.457031 219.582031 232.648438 218.894531 L 237.398438 216.152344 C 237.28125 215.265625 237.222656 214.378906 237.222656 213.503906 C 237.222656 212.628906 237.28125 211.742188 237.398438 210.859375 L 232.648438 208.121094 C 232.078125 207.789062 231.660156 207.242188 231.488281 206.605469 C 231.316406 205.964844 231.40625 205.285156 231.738281 204.710938 L 237.183594 195.277344 C 237.515625 194.707031 238.058594 194.289062 238.695312 194.117188 C 239.335938 193.945312 240.015625 194.035156 240.589844 194.363281 L 245.347656 197.109375 C 246.761719 196.019531 248.292969 195.132812 249.921875 194.453125 L 249.921875 188.976562 C 249.921875 187.601562 251.039062 186.480469 252.414062 186.480469 L 263.304688 186.480469 C 264.683594 186.480469 265.800781 187.601562 265.800781 188.976562 L 265.800781 194.453125 C 267.425781 195.128906 268.957031 196.019531 270.375 197.109375 L 275.132812 194.363281 C 275.707031 194.03125 276.390625 193.945312 277.027344 194.117188 C 277.664062 194.285156 278.210938 194.703125 278.539062 195.277344 L 283.984375 204.710938 C 284.316406 205.285156 284.40625 205.964844 284.234375 206.605469 C 284.066406 207.242188 283.644531 207.789062 283.074219 208.121094 L 278.324219 210.859375 C 278.441406 211.742188 278.5 212.628906 278.5 213.503906 C 278.5 214.378906 278.441406 215.265625 278.324219 216.152344 L 283.074219 218.894531 C 284.265625 219.582031 284.675781 221.109375 283.984375 222.300781 L 278.539062 231.730469 C 278.207031 232.304688 277.664062 232.722656 277.027344 232.894531 C 276.390625 233.070312 275.707031 232.976562 275.132812 232.644531 L 270.375 229.898438 C 268.957031 230.988281 267.425781 231.875 265.800781 232.558594 L 265.800781 238.03125 C 265.800781 239.40625 264.683594 240.523438 263.304688 240.523438 Z M 254.910156 235.535156 L 260.8125 235.535156 L 260.8125 230.8125 C 260.8125 229.722656 261.519531 228.761719 262.558594 228.433594 C 264.726562 227.753906 266.699219 226.605469 268.421875 225.023438 C 269.226562 224.285156 270.414062 224.15625 271.355469 224.703125 L 275.464844 227.074219 L 278.414062 221.964844 L 274.316406 219.597656 C 273.375 219.054688 272.894531 217.960938 273.128906 216.898438 C 273.382812 215.757812 273.507812 214.617188 273.507812 213.503906 C 273.507812 212.390625 273.382812 211.25 273.128906 210.113281 C 272.894531 209.050781 273.375 207.953125 274.316406 207.410156 L 278.414062 205.046875 L 275.464844 199.933594 L 271.355469 202.308594 C 270.414062 202.847656 269.226562 202.722656 268.421875 201.984375 C 266.699219 200.402344 264.726562 199.257812 262.558594 198.574219 C 261.519531 198.25 260.8125 197.285156 260.8125 196.195312 L 260.8125 191.472656 L 254.910156 191.472656 L 254.910156 196.195312 C 254.910156 197.285156 254.203125 198.25 253.164062 198.574219 C 250.996094 199.257812 249.023438 200.402344 247.300781 201.984375 C 246.492188 202.722656 245.304688 202.851562 244.367188 202.308594 L 240.257812 199.933594 L 237.308594 205.046875 L 241.40625 207.410156 C 242.347656 207.953125 242.828125 209.050781 242.59375 210.113281 C 242.339844 211.25 242.214844 212.390625 242.214844 213.503906 C 242.214844 214.617188 242.339844 215.757812 242.59375 216.898438 C 242.828125 217.960938 242.347656 219.054688 241.40625 219.597656 L 237.308594 221.964844 L 240.257812 227.074219 L 244.367188 224.703125 C 245.304688 224.15625 246.492188 224.285156 247.300781 225.023438 C 249.023438 226.605469 250.996094 227.753906 253.164062 228.433594 C 254.203125 228.761719 254.910156 229.726562 254.910156 230.8125 Z M 257.859375 223.472656 C 252.363281 223.472656 247.890625 219 247.890625 213.503906 C 247.890625 208.003906 252.363281 203.53125 257.859375 203.53125 C 263.359375 203.53125 267.832031 208.003906 267.832031 213.503906 C 267.832031 219 263.359375 223.472656 257.859375 223.472656 Z M 257.859375 208.519531 C 255.113281 208.519531 252.878906 210.753906 252.878906 213.503906 C 252.878906 216.25 255.113281 218.484375 257.859375 218.484375 C 260.609375 218.484375 262.84375 216.25 262.84375 213.503906 C 262.84375 210.753906 260.609375 208.519531 257.859375 208.519531 Z M 257.859375 208.519531 " fill-opacity="1" fill-rule="nonzero"/><path fill="#000000" d="M 131.289062 176.351562 L 120.398438 176.351562 C 119.019531 176.351562 117.902344 175.230469 117.902344 173.855469 L 117.902344 168.382812 C 116.277344 167.703125 114.746094 166.8125 113.328125 165.722656 L 108.574219 168.46875 C 107.375 169.15625 105.855469 168.75 105.164062 167.558594 L 99.71875 158.125 C 99.03125 156.933594 99.441406 155.40625 100.632812 154.71875 L 105.378906 151.976562 C 105.261719 151.089844 105.203125 150.203125 105.203125 149.328125 C 105.203125 148.457031 105.261719 147.570312 105.378906 146.683594 L 100.632812 143.941406 C 100.0625 143.609375 99.644531 143.066406 99.46875 142.425781 C 99.296875 141.789062 99.386719 141.109375 99.71875 140.535156 L 105.164062 131.101562 C 105.496094 130.527344 106.042969 130.109375 106.679688 129.9375 C 107.3125 129.761719 107.996094 129.855469 108.574219 130.1875 L 113.328125 132.933594 C 114.746094 131.84375 116.277344 130.957031 117.902344 130.273438 L 117.902344 124.800781 C 117.902344 123.421875 119.019531 122.304688 120.398438 122.304688 L 131.289062 122.304688 C 132.667969 122.304688 133.785156 123.421875 133.785156 124.800781 L 133.785156 130.273438 C 135.410156 130.953125 136.941406 131.84375 138.355469 132.933594 L 143.113281 130.1875 C 143.6875 129.855469 144.371094 129.765625 145.007812 129.9375 C 145.644531 130.109375 146.191406 130.527344 146.519531 131.101562 L 151.964844 140.535156 C 152.296875 141.109375 152.386719 141.789062 152.214844 142.425781 C 152.046875 143.066406 151.628906 143.613281 151.054688 143.941406 L 146.304688 146.683594 C 146.421875 147.570312 146.484375 148.453125 146.484375 149.328125 C 146.484375 150.207031 146.421875 151.089844 146.304688 151.976562 L 151.054688 154.71875 C 152.25 155.40625 152.65625 156.933594 151.964844 158.125 L 146.519531 167.558594 C 145.832031 168.75 144.308594 169.15625 143.113281 168.46875 L 138.355469 165.722656 C 136.941406 166.8125 135.410156 167.703125 133.785156 168.382812 L 133.785156 173.855469 C 133.785156 175.230469 132.667969 176.351562 131.289062 176.351562 Z M 122.890625 171.359375 L 128.796875 171.359375 L 128.796875 166.640625 C 128.796875 165.546875 129.5 164.585938 130.542969 164.257812 C 132.710938 163.578125 134.683594 162.429688 136.40625 160.847656 C 137.210938 160.109375 138.398438 159.980469 139.339844 160.527344 L 143.449219 162.898438 L 146.398438 157.789062 L 142.300781 155.421875 C 141.359375 154.878906 140.878906 153.789062 141.109375 152.726562 C 141.363281 151.582031 141.492188 150.4375 141.492188 149.328125 C 141.492188 148.222656 141.363281 147.078125 141.109375 145.933594 C 140.875 144.871094 141.359375 143.78125 142.300781 143.234375 L 146.398438 140.871094 L 143.449219 135.761719 L 139.339844 138.132812 C 138.398438 138.675781 137.210938 138.546875 136.40625 137.808594 C 134.683594 136.230469 132.710938 135.082031 130.542969 134.402344 C 129.5 134.074219 128.796875 133.109375 128.796875 132.019531 L 128.796875 127.296875 L 122.890625 127.296875 L 122.890625 132.019531 C 122.890625 133.109375 122.183594 134.074219 121.144531 134.402344 C 118.976562 135.078125 117.003906 136.226562 115.28125 137.808594 C 114.476562 138.546875 113.289062 138.675781 112.347656 138.132812 L 108.238281 135.761719 L 105.289062 140.871094 L 109.386719 143.234375 C 110.328125 143.78125 110.808594 144.871094 110.574219 145.933594 C 110.320312 147.078125 110.195312 148.222656 110.195312 149.328125 C 110.195312 150.4375 110.320312 151.582031 110.574219 152.726562 C 110.808594 153.789062 110.328125 154.878906 109.386719 155.421875 L 105.289062 157.789062 L 108.238281 162.898438 L 112.347656 160.527344 C 113.289062 159.984375 114.476562 160.109375 115.28125 160.847656 C 117.003906 162.429688 118.976562 163.578125 121.144531 164.257812 C 122.183594 164.585938 122.890625 165.550781 122.890625 166.640625 Z M 125.84375 159.296875 C 120.34375 159.296875 115.871094 154.824219 115.871094 149.328125 C 115.871094 143.828125 120.34375 139.355469 125.84375 139.355469 C 131.339844 139.355469 135.816406 143.828125 135.816406 149.328125 C 135.816406 154.824219 131.34375 159.296875 125.84375 159.296875 Z M 125.84375 144.347656 C 123.09375 144.347656 120.859375 146.582031 120.859375 149.328125 C 120.859375 152.074219 123.09375 154.308594 125.84375 154.308594 C 128.589844 154.308594 130.824219 152.074219 130.824219 149.328125 C 130.824219 146.582031 128.589844 144.347656 125.84375 144.347656 Z M 125.84375 144.347656 " fill-opacity="1" fill-rule="nonzero"/><path fill="#000000" d="M 175.214844 193.449219 C 174.253906 193.449219 173.339844 192.890625 172.925781 191.957031 L 171.492188 188.679688 C 170.433594 188.671875 169.386719 188.558594 168.359375 188.339844 L 166.246094 191.210938 C 165.429688 192.320312 163.871094 192.5625 162.761719 191.742188 L 156.339844 187.019531 C 155.808594 186.628906 155.453125 186.039062 155.355469 185.386719 C 155.253906 184.734375 155.417969 184.066406 155.808594 183.535156 L 157.921875 180.664062 C 157.410156 179.746094 156.992188 178.78125 156.667969 177.773438 L 153.113281 177.375 C 151.746094 177.222656 150.757812 175.992188 150.910156 174.621094 L 151.792969 166.703125 C 151.863281 166.046875 152.195312 165.445312 152.710938 165.03125 C 153.230469 164.621094 153.882812 164.417969 154.546875 164.5 L 158.089844 164.894531 C 158.359375 164.4375 158.652344 163.996094 158.960938 163.574219 C 159.269531 163.15625 159.601562 162.75 159.957031 162.355469 L 158.527344 159.085938 C 158.261719 158.480469 158.246094 157.792969 158.488281 157.175781 C 158.730469 156.5625 159.207031 156.066406 159.808594 155.800781 L 167.109375 152.605469 C 168.371094 152.054688 169.839844 152.628906 170.394531 153.890625 L 171.828125 157.164062 C 172.886719 157.171875 173.933594 157.285156 174.960938 157.503906 L 177.074219 154.632812 C 177.464844 154.101562 178.054688 153.746094 178.707031 153.644531 C 179.351562 153.546875 180.027344 153.710938 180.558594 154.101562 L 186.980469 158.824219 C 187.511719 159.214844 187.867188 159.804688 187.964844 160.457031 C 188.066406 161.109375 187.902344 161.777344 187.511719 162.3125 L 185.398438 165.183594 C 185.910156 166.097656 186.332031 167.058594 186.652344 168.070312 L 190.207031 168.46875 C 190.863281 168.539062 191.464844 168.871094 191.878906 169.386719 C 192.292969 169.902344 192.480469 170.5625 192.410156 171.222656 L 191.527344 179.136719 C 191.375 180.507812 190.132812 181.503906 188.773438 181.339844 L 185.226562 180.945312 C 184.960938 181.402344 184.667969 181.84375 184.363281 182.265625 C 184.050781 182.6875 183.71875 183.09375 183.363281 183.488281 L 184.796875 186.753906 C 185.351562 188.015625 184.773438 189.488281 183.511719 190.039062 L 176.214844 193.238281 C 175.886719 193.378906 175.550781 193.445312 175.214844 193.445312 Z M 173.089844 183.609375 C 174.074219 183.609375 174.972656 184.1875 175.375 185.101562 L 176.5 187.667969 L 179.226562 186.472656 L 178.109375 183.914062 C 177.671875 182.917969 177.929688 181.753906 178.75 181.035156 C 179.355469 180.511719 179.894531 179.929688 180.347656 179.3125 C 180.804688 178.691406 181.199219 178.007812 181.523438 177.273438 C 181.960938 176.277344 183.003906 175.679688 184.082031 175.804688 L 186.855469 176.109375 L 187.183594 173.148438 L 184.398438 172.839844 C 183.316406 172.71875 182.4375 171.914062 182.226562 170.84375 C 181.914062 169.261719 181.292969 167.820312 180.367188 166.554688 C 179.722656 165.675781 179.726562 164.480469 180.367188 163.601562 L 182.019531 161.363281 L 179.621094 159.597656 L 177.972656 161.839844 C 177.324219 162.71875 176.183594 163.070312 175.152344 162.71875 C 173.671875 162.210938 172.113281 162.042969 170.507812 162.21875 C 169.425781 162.324219 168.390625 161.738281 167.953125 160.738281 L 166.832031 158.171875 L 164.101562 159.367188 L 165.222656 161.925781 C 165.660156 162.917969 165.398438 164.085938 164.582031 164.804688 C 163.972656 165.335938 163.4375 165.917969 162.980469 166.53125 C 162.527344 167.148438 162.132812 167.832031 161.808594 168.570312 C 161.367188 169.566406 160.359375 170.171875 159.25 170.042969 L 156.476562 169.730469 L 156.148438 172.691406 L 158.929688 173.003906 C 160.011719 173.125 160.890625 173.933594 161.105469 175.003906 C 161.414062 176.585938 162.039062 178.027344 162.964844 179.289062 C 163.609375 180.167969 163.609375 181.363281 162.964844 182.242188 L 161.3125 184.480469 L 163.710938 186.246094 L 165.363281 184.003906 C 166.007812 183.128906 167.152344 182.773438 168.179688 183.121094 C 169.65625 183.632812 171.21875 183.796875 172.824219 183.625 C 172.914062 183.613281 173.003906 183.609375 173.09375 183.609375 Z M 182.355469 180.789062 Z M 171.644531 180.886719 C 169.960938 180.886719 168.324219 180.351562 166.941406 179.335938 C 163.410156 176.734375 162.648438 171.738281 165.246094 168.203125 C 167.851562 164.664062 172.84375 163.910156 176.382812 166.507812 C 178.097656 167.765625 179.214844 169.621094 179.535156 171.722656 C 179.855469 173.824219 179.339844 175.929688 178.074219 177.640625 C 176.816406 179.355469 174.964844 180.476562 172.863281 180.792969 C 172.457031 180.855469 172.050781 180.886719 171.648438 180.886719 Z M 169.898438 175.316406 C 170.539062 175.785156 171.320312 175.976562 172.109375 175.859375 C 172.894531 175.742188 173.585938 175.324219 174.058594 174.683594 C 174.527344 174.042969 174.722656 173.257812 174.605469 172.472656 C 174.484375 171.6875 174.066406 170.996094 173.425781 170.523438 C 172.105469 169.550781 170.242188 169.835938 169.269531 171.15625 C 168.296875 172.476562 168.582031 174.339844 169.902344 175.316406 Z M 169.898438 175.316406 " fill-opacity="1" fill-rule="nonzero"/></svg>