<svg xmlns="http://www.w3.org/2000/svg" xmlns:xlink="http://www.w3.org/1999/xlink" width="500" zoomAndPan="magnify" viewBox="0 0 375 374.999991" height="500" preserveAspectRatio="xMidYMid meet" version="1.0"><defs><clipPath id="7bd8f46ba8"><path d="M 71.125 97.601562 L 303.625 97.601562 L 303.625 277.601562 L 71.125 277.601562 Z M 71.125 97.601562 " clip-rule="nonzero"/></clipPath><clipPath id="2adb327d5b"><path d="M 82 97.601562 L 217 97.601562 L 217 242 L 82 242 Z M 82 97.601562 " clip-rule="nonzero"/></clipPath></defs><g clip-path="url(#7bd8f46ba8)"><path fill="#000000" d="M 296.222656 97.601562 L 218.214844 97.601562 C 218.941406 98.691406 219.664062 99.964844 219.847656 101.234375 L 296.222656 101.234375 C 298.21875 101.234375 299.851562 102.871094 299.851562 104.871094 L 299.851562 237.601562 L 219.847656 237.601562 C 219.664062 238.871094 218.941406 240.144531 218.214844 241.234375 L 299.851562 241.234375 L 299.851562 250.328125 C 299.851562 252.328125 298.21875 253.964844 296.222656 253.964844 L 78.527344 253.964844 C 76.53125 253.964844 74.898438 252.328125 74.898438 250.328125 L 74.898438 241.234375 L 80.339844 241.234375 C 79.613281 240.144531 78.890625 238.871094 78.707031 237.601562 L 74.898438 237.601562 L 74.898438 104.871094 C 74.898438 102.871094 76.53125 101.234375 78.527344 101.234375 L 78.707031 101.234375 C 78.890625 99.964844 79.613281 98.691406 80.339844 97.601562 L 78.527344 97.601562 C 74.535156 97.601562 71.269531 100.871094 71.269531 104.871094 L 71.269531 250.328125 C 71.269531 254.328125 74.535156 257.601562 78.527344 257.601562 L 174.675781 257.601562 L 174.675781 273.964844 L 160.164062 273.964844 C 159.074219 273.964844 158.347656 274.691406 158.347656 275.78125 C 158.347656 276.871094 159.074219 277.601562 160.164062 277.601562 L 214.585938 277.601562 C 215.675781 277.601562 216.398438 276.871094 216.398438 275.78125 C 216.398438 274.691406 215.675781 273.964844 214.585938 273.964844 L 200.074219 273.964844 L 200.074219 257.601562 L 296.222656 257.601562 C 300.214844 257.601562 303.480469 254.328125 303.480469 250.328125 L 303.480469 104.871094 C 303.480469 100.871094 300.214844 97.601562 296.222656 97.601562 Z M 296.222656 97.601562 " fill-opacity="1" fill-rule="nonzero"/></g><path fill="#000000" d="M 201.886719 106.691406 C 201.886719 106.933594 201.839844 107.164062 201.75 107.386719 C 201.65625 107.609375 201.527344 107.804688 201.355469 107.976562 C 201.1875 108.148438 200.988281 108.277344 200.765625 108.371094 C 200.546875 108.460938 200.3125 108.507812 200.074219 108.507812 C 199.832031 108.507812 199.601562 108.460938 199.378906 108.371094 C 199.15625 108.277344 198.960938 108.148438 198.789062 107.976562 C 198.621094 107.804688 198.488281 107.609375 198.398438 107.386719 C 198.304688 107.164062 198.257812 106.933594 198.257812 106.691406 C 198.257812 106.449219 198.304688 106.21875 198.398438 105.996094 C 198.488281 105.773438 198.621094 105.574219 198.789062 105.40625 C 198.960938 105.234375 199.15625 105.101562 199.378906 105.011719 C 199.601562 104.917969 199.832031 104.871094 200.074219 104.871094 C 200.3125 104.871094 200.546875 104.917969 200.765625 105.011719 C 200.988281 105.101562 201.1875 105.234375 201.355469 105.40625 C 201.527344 105.574219 201.65625 105.773438 201.75 105.996094 C 201.839844 106.21875 201.886719 106.449219 201.886719 106.691406 Z M 201.886719 106.691406 " fill-opacity="1" fill-rule="nonzero"/><path fill="#000000" d="M 194.628906 106.691406 C 194.628906 106.933594 194.585938 107.164062 194.492188 107.386719 C 194.402344 107.609375 194.269531 107.804688 194.097656 107.976562 C 193.929688 108.148438 193.734375 108.277344 193.511719 108.371094 C 193.289062 108.460938 193.058594 108.507812 192.816406 108.507812 C 192.574219 108.507812 192.34375 108.460938 192.121094 108.371094 C 191.898438 108.277344 191.703125 108.148438 191.535156 107.976562 C 191.363281 107.804688 191.234375 107.609375 191.140625 107.386719 C 191.046875 107.164062 191.003906 106.933594 191.003906 106.691406 C 191.003906 106.449219 191.046875 106.21875 191.140625 105.996094 C 191.234375 105.773438 191.363281 105.574219 191.535156 105.40625 C 191.703125 105.234375 191.898438 105.101562 192.121094 105.011719 C 192.34375 104.917969 192.574219 104.871094 192.816406 104.871094 C 193.058594 104.871094 193.289062 104.917969 193.511719 105.011719 C 193.734375 105.101562 193.929688 105.234375 194.097656 105.40625 C 194.269531 105.574219 194.402344 105.773438 194.492188 105.996094 C 194.585938 106.21875 194.628906 106.449219 194.628906 106.691406 Z M 194.628906 106.691406 " fill-opacity="1" fill-rule="nonzero"/><path fill="#000000" d="M 252.683594 139.417969 L 252.683594 132.144531 C 252.683594 131.054688 251.957031 130.328125 250.867188 130.328125 C 249.78125 130.328125 249.054688 131.054688 249.054688 132.144531 L 249.054688 139.417969 C 249.054688 140.507812 249.78125 141.234375 250.867188 141.234375 C 251.957031 141.234375 252.683594 140.507812 252.683594 139.417969 Z M 252.683594 139.417969 " fill-opacity="1" fill-rule="nonzero"/><path fill="#000000" d="M 259.9375 139.417969 L 259.9375 121.234375 C 259.9375 120.144531 259.214844 119.417969 258.125 119.417969 C 257.035156 119.417969 256.3125 120.144531 256.3125 121.234375 L 256.3125 139.417969 C 256.3125 140.507812 257.035156 141.234375 258.125 141.234375 C 259.214844 141.234375 259.9375 140.507812 259.9375 139.417969 Z M 259.9375 139.417969 " fill-opacity="1" fill-rule="nonzero"/><path fill="#000000" d="M 267.195312 139.417969 L 267.195312 132.144531 C 267.195312 131.054688 266.46875 130.328125 265.382812 130.328125 C 264.292969 130.328125 263.566406 131.054688 263.566406 132.144531 L 263.566406 139.417969 C 263.566406 140.507812 264.292969 141.234375 265.382812 141.234375 C 266.46875 141.234375 267.195312 140.507812 267.195312 139.417969 Z M 267.195312 139.417969 " fill-opacity="1" fill-rule="nonzero"/><path fill="#000000" d="M 156.535156 181.054688 L 156.535156 206.871094 L 175.039062 193.964844 Z M 156.535156 181.054688 " fill-opacity="1" fill-rule="nonzero"/><path fill="#000000" d="M 198.621094 177.601562 L 157.984375 177.601562 L 178.304688 191.78125 Z M 198.621094 177.601562 " fill-opacity="1" fill-rule="nonzero"/><path fill="#000000" d="M 157.984375 210.328125 L 198.621094 210.328125 L 178.304688 196.144531 Z M 157.984375 210.328125 " fill-opacity="1" fill-rule="nonzero"/><path fill="#000000" d="M 138.753906 130.328125 L 98.117188 130.328125 L 118.4375 144.507812 Z M 138.753906 130.328125 " fill-opacity="1" fill-rule="nonzero"/><path fill="#000000" d="M 96.667969 133.78125 L 96.667969 159.601562 L 115.171875 146.691406 Z M 96.667969 133.78125 " fill-opacity="1" fill-rule="nonzero"/><path fill="#000000" d="M 140.207031 159.601562 L 140.207031 133.78125 L 121.703125 146.691406 Z M 140.207031 159.601562 " fill-opacity="1" fill-rule="nonzero"/><path fill="#000000" d="M 200.074219 206.871094 L 200.074219 181.054688 L 181.570312 193.964844 Z M 200.074219 206.871094 " fill-opacity="1" fill-rule="nonzero"/><path fill="#000000" d="M 98.117188 163.054688 L 138.753906 163.054688 L 118.4375 148.871094 Z M 98.117188 163.054688 " fill-opacity="1" fill-rule="nonzero"/><g clip-path="url(#2adb327d5b)"><path fill="#000000" d="M 210.957031 241.234375 C 213.859375 241.234375 216.398438 238.871094 216.398438 235.78125 L 216.398438 103.054688 C 216.398438 100.144531 214.042969 97.601562 210.957031 97.601562 L 87.597656 97.601562 C 84.695312 97.601562 82.15625 99.964844 82.15625 103.054688 L 82.15625 235.78125 C 82.15625 238.691406 84.511719 241.234375 87.597656 241.234375 Z M 143.835938 213.964844 L 93.039062 213.964844 C 91.949219 213.964844 91.226562 213.234375 91.226562 212.144531 C 91.226562 211.054688 91.949219 210.328125 93.039062 210.328125 L 143.835938 210.328125 C 144.921875 210.328125 145.648438 211.054688 145.648438 212.144531 C 145.648438 213.234375 144.921875 213.964844 143.835938 213.964844 Z M 143.835938 204.871094 L 93.039062 204.871094 C 91.949219 204.871094 91.226562 204.144531 91.226562 203.054688 C 91.226562 201.964844 91.949219 201.234375 93.039062 201.234375 L 143.835938 201.234375 C 144.921875 201.234375 145.648438 201.964844 145.648438 203.054688 C 145.648438 204.144531 144.921875 204.871094 143.835938 204.871094 Z M 143.835938 195.78125 L 93.039062 195.78125 C 91.949219 195.78125 91.226562 195.054688 91.226562 193.964844 C 91.226562 192.871094 91.949219 192.144531 93.039062 192.144531 L 143.835938 192.144531 C 144.921875 192.144531 145.648438 192.871094 145.648438 193.964844 C 145.648438 195.054688 144.921875 195.78125 143.835938 195.78125 Z M 143.835938 186.691406 L 93.039062 186.691406 C 91.949219 186.691406 91.226562 185.964844 91.226562 184.871094 C 91.226562 183.78125 91.949219 183.054688 93.039062 183.054688 L 143.835938 183.054688 C 144.921875 183.054688 145.648438 183.78125 145.648438 184.871094 C 145.648438 185.964844 144.921875 186.691406 143.835938 186.691406 Z M 143.835938 177.601562 L 93.039062 177.601562 C 91.949219 177.601562 91.226562 176.871094 91.226562 175.78125 C 91.226562 174.691406 91.949219 173.964844 93.039062 173.964844 L 143.835938 173.964844 C 144.921875 173.964844 145.648438 174.691406 145.648438 175.78125 C 145.648438 176.871094 144.921875 177.601562 143.835938 177.601562 Z M 93.039062 163.054688 L 93.039062 130.328125 C 93.039062 130.144531 93.039062 130.144531 93.039062 129.964844 C 93.222656 128.144531 94.671875 126.691406 96.667969 126.691406 L 140.207031 126.691406 C 142.019531 126.691406 143.652344 128.144531 143.835938 129.964844 C 143.835938 130.144531 143.835938 130.144531 143.835938 130.328125 L 143.835938 163.054688 C 143.835938 163.234375 143.835938 163.234375 143.835938 163.417969 C 143.652344 165.234375 142.203125 166.691406 140.207031 166.691406 L 96.667969 166.691406 C 94.851562 166.691406 93.222656 165.234375 93.039062 163.417969 C 93.039062 163.234375 93.039062 163.234375 93.039062 163.054688 Z M 203.703125 210.328125 C 203.703125 210.507812 203.703125 210.507812 203.703125 210.691406 C 203.519531 212.507812 202.070312 213.964844 200.074219 213.964844 L 156.535156 213.964844 C 154.71875 213.964844 153.085938 212.507812 152.90625 210.691406 C 152.90625 210.507812 152.90625 210.507812 152.90625 210.328125 L 152.90625 177.601562 C 152.90625 177.417969 152.90625 177.417969 152.90625 177.234375 C 153.085938 175.417969 154.539062 173.964844 156.535156 173.964844 L 200.074219 173.964844 C 201.886719 173.964844 203.519531 175.417969 203.703125 177.234375 C 203.703125 177.417969 203.703125 177.417969 203.703125 177.601562 Z M 203.703125 166.691406 L 152.90625 166.691406 C 151.816406 166.691406 151.089844 165.964844 151.089844 164.871094 C 151.089844 163.78125 151.816406 163.054688 152.90625 163.054688 L 203.703125 163.054688 C 204.789062 163.054688 205.515625 163.78125 205.515625 164.871094 C 205.515625 165.964844 204.789062 166.691406 203.703125 166.691406 Z M 203.703125 157.601562 L 152.90625 157.601562 C 151.816406 157.601562 151.089844 156.871094 151.089844 155.78125 C 151.089844 154.691406 151.816406 153.964844 152.90625 153.964844 L 203.703125 153.964844 C 204.789062 153.964844 205.515625 154.691406 205.515625 155.78125 C 205.515625 156.871094 204.789062 157.601562 203.703125 157.601562 Z M 203.703125 148.507812 L 152.90625 148.507812 C 151.816406 148.507812 151.089844 147.78125 151.089844 146.691406 C 151.089844 145.601562 151.816406 144.871094 152.90625 144.871094 L 203.703125 144.871094 C 204.789062 144.871094 205.515625 145.601562 205.515625 146.691406 C 205.515625 147.78125 204.789062 148.507812 203.703125 148.507812 Z M 203.703125 139.417969 L 152.90625 139.417969 C 151.816406 139.417969 151.089844 138.691406 151.089844 137.601562 C 151.089844 136.507812 151.816406 135.78125 152.90625 135.78125 L 203.703125 135.78125 C 204.789062 135.78125 205.515625 136.507812 205.515625 137.601562 C 205.515625 138.691406 204.789062 139.417969 203.703125 139.417969 Z M 203.703125 130.328125 L 152.90625 130.328125 C 151.816406 130.328125 151.089844 129.601562 151.089844 128.507812 C 151.089844 127.417969 151.816406 126.691406 152.90625 126.691406 L 203.703125 126.691406 C 204.789062 126.691406 205.515625 127.417969 205.515625 128.507812 C 205.515625 129.601562 204.789062 130.328125 203.703125 130.328125 Z M 85.78125 103.054688 C 85.78125 102.144531 86.507812 101.234375 87.597656 101.234375 L 210.957031 101.234375 C 211.863281 101.234375 212.773438 101.964844 212.773438 103.054688 L 212.773438 112.144531 L 85.78125 112.144531 Z M 85.78125 103.054688 " fill-opacity="1" fill-rule="nonzero"/></g><path fill="#000000" d="M 223.65625 183.054688 C 223.65625 202.144531 239.078125 217.601562 258.125 217.601562 C 277.171875 217.601562 292.59375 202.144531 292.59375 183.054688 C 292.59375 163.964844 277.171875 148.507812 258.125 148.507812 C 239.078125 148.507812 223.65625 163.964844 223.65625 183.054688 Z M 231.457031 184.871094 L 227.464844 184.871094 C 227.464844 184.328125 227.285156 183.601562 227.285156 183.054688 C 227.285156 182.507812 227.285156 181.78125 227.464844 181.234375 L 231.457031 181.234375 C 232.546875 181.234375 233.273438 181.964844 233.273438 183.054688 C 233.273438 184.144531 232.363281 184.871094 231.457031 184.871094 Z M 284.792969 181.234375 L 288.785156 181.234375 C 288.785156 181.78125 288.964844 182.507812 288.964844 183.054688 C 288.964844 183.601562 288.964844 184.328125 288.785156 184.871094 L 284.792969 184.871094 C 283.703125 184.871094 282.980469 184.144531 282.980469 183.054688 C 282.980469 181.964844 283.886719 181.234375 284.792969 181.234375 Z M 259.9375 213.78125 C 259.394531 213.78125 258.667969 213.964844 258.125 213.964844 C 257.582031 213.964844 256.855469 213.964844 256.3125 213.78125 L 256.3125 209.78125 C 256.3125 208.691406 257.035156 207.964844 258.125 207.964844 C 259.214844 207.964844 259.9375 208.691406 259.9375 209.78125 Z M 275.722656 162.871094 L 278.625 159.964844 C 279.53125 160.691406 280.4375 161.601562 281.164062 162.507812 L 278.261719 165.417969 C 277.898438 165.78125 277.355469 165.964844 276.992188 165.964844 C 276.449219 165.964844 276.085938 165.78125 275.722656 165.417969 C 274.996094 164.691406 274.996094 163.601562 275.722656 162.871094 Z M 275.722656 200.691406 C 276.449219 199.964844 277.535156 199.964844 278.261719 200.691406 L 281.164062 203.601562 C 280.4375 204.507812 279.53125 205.417969 278.625 206.144531 L 275.722656 203.234375 C 274.996094 202.507812 274.996094 201.417969 275.722656 200.691406 Z M 256.3125 152.328125 C 256.855469 152.328125 257.582031 152.144531 258.125 152.144531 C 258.667969 152.144531 259.394531 152.144531 259.9375 152.328125 L 259.9375 156.328125 C 259.9375 157.417969 259.214844 158.144531 258.125 158.144531 C 257.035156 158.144531 256.3125 157.417969 256.3125 156.328125 Z M 247.601562 175.054688 C 248.148438 174.328125 249.417969 174.144531 250.144531 174.691406 L 257.945312 180.691406 L 269.554688 170.691406 C 270.28125 169.964844 271.550781 170.144531 272.09375 170.871094 C 272.820312 171.601562 272.636719 172.871094 271.914062 173.417969 L 259.214844 184.328125 C 258.851562 184.691406 258.488281 184.691406 258.125 184.691406 C 257.761719 184.691406 257.398438 184.507812 257.035156 184.328125 L 247.964844 177.417969 C 247.242188 177.054688 247.058594 175.964844 247.601562 175.054688 Z M 237.625 159.964844 L 240.527344 162.871094 C 241.253906 163.601562 241.253906 164.691406 240.527344 165.417969 C 240.164062 165.78125 239.621094 165.964844 239.257812 165.964844 C 238.714844 165.964844 238.351562 165.78125 237.988281 165.417969 L 235.085938 162.507812 C 235.992188 161.601562 236.71875 160.871094 237.625 159.964844 Z M 237.988281 200.691406 C 238.714844 199.964844 239.800781 199.964844 240.527344 200.691406 C 241.253906 201.417969 241.253906 202.507812 240.527344 203.234375 L 237.625 206.144531 C 236.71875 205.417969 235.8125 204.507812 235.085938 203.601562 Z M 237.988281 200.691406 " fill-opacity="1" fill-rule="nonzero"/></svg>