<svg xmlns="http://www.w3.org/2000/svg" xmlns:xlink="http://www.w3.org/1999/xlink" width="500" zoomAndPan="magnify" viewBox="0 0 375 374.999991" height="500" preserveAspectRatio="xMidYMid meet" version="1.0"><defs><clipPath id="6701e2c2f1"><path d="M 75 90.609375 L 300 90.609375 L 300 284.109375 L 75 284.109375 Z M 75 90.609375 " clip-rule="nonzero"/></clipPath></defs><g clip-path="url(#6701e2c2f1)"><path fill="#100f0d" d="M 295.371094 90.792969 L 79.628906 90.792969 C 77.507812 90.792969 75.777344 92.519531 75.777344 94.640625 L 75.777344 244.023438 C 75.777344 246.140625 77.507812 247.871094 79.628906 247.871094 L 156.875 247.871094 L 156.875 260.386719 L 138.351562 260.386719 C 136.214844 260.386719 134.496094 262.117188 134.496094 264.234375 L 134.496094 280.464844 C 134.496094 282.582031 136.214844 284.3125 138.351562 284.3125 L 236.648438 284.3125 C 238.785156 284.3125 240.503906 282.582031 240.503906 280.464844 L 240.503906 264.234375 C 240.503906 262.117188 238.785156 260.386719 236.648438 260.386719 L 218.125 260.386719 L 218.125 247.871094 L 295.371094 247.871094 C 297.492188 247.871094 299.222656 246.140625 299.222656 244.023438 L 299.222656 94.640625 C 299.222656 92.519531 297.492188 90.792969 295.371094 90.792969 Z M 291.519531 217.066406 L 274.917969 217.066406 L 274.917969 98.488281 L 291.519531 98.488281 Z M 267.214844 98.488281 L 267.214844 217.066406 L 107.785156 217.066406 L 107.785156 98.488281 Z M 100.082031 98.488281 L 100.082031 217.066406 L 83.480469 217.066406 L 83.480469 98.488281 Z M 232.796875 276.617188 L 142.203125 276.617188 L 142.203125 268.082031 L 232.796875 268.082031 Z M 210.417969 260.386719 L 164.582031 260.386719 L 164.582031 247.871094 L 210.417969 247.871094 Z M 83.480469 240.175781 L 83.480469 224.757812 L 291.519531 224.757812 L 291.519531 240.175781 L 83.480469 240.175781 " fill-opacity="1" fill-rule="nonzero"/></g><path fill="#100f0d" d="M 254.542969 228.621094 L 237.011719 228.621094 C 234.890625 228.621094 233.160156 230.332031 233.160156 232.46875 C 233.160156 234.585938 234.890625 236.3125 237.011719 236.3125 L 254.542969 236.3125 C 256.664062 236.3125 258.394531 234.585938 258.394531 232.46875 C 258.394531 230.332031 256.664062 228.621094 254.542969 228.621094 " fill-opacity="1" fill-rule="nonzero"/><path fill="#100f0d" d="M 274.121094 228.621094 L 267.183594 228.621094 C 265.0625 228.621094 263.332031 230.332031 263.332031 232.46875 C 263.332031 234.585938 265.0625 236.3125 267.183594 236.3125 L 274.121094 236.3125 C 276.242188 236.3125 277.972656 234.585938 277.972656 232.46875 C 277.972656 230.332031 276.242188 228.621094 274.121094 228.621094 " fill-opacity="1" fill-rule="nonzero"/><path fill="#100f0d" d="M 119.117188 137.738281 L 255.882812 137.738281 C 258.019531 137.738281 259.734375 136.023438 259.734375 133.890625 L 259.734375 108.808594 C 259.734375 106.691406 258.019531 104.964844 255.882812 104.964844 L 119.117188 104.964844 C 116.980469 104.964844 115.265625 106.691406 115.265625 108.808594 L 115.265625 133.890625 C 115.265625 136.023438 116.980469 137.738281 119.117188 137.738281 Z M 122.96875 112.65625 L 252.03125 112.65625 L 252.03125 130.042969 L 122.96875 130.042969 L 122.96875 112.65625 " fill-opacity="1" fill-rule="nonzero"/><path fill="#100f0d" d="M 119.101562 212.496094 L 167.378906 212.496094 C 169.5 212.496094 171.230469 210.769531 171.230469 208.648438 L 171.230469 149.234375 C 171.230469 147.113281 169.5 145.386719 167.378906 145.386719 L 119.117188 145.386719 C 116.980469 145.386719 115.265625 147.113281 115.265625 149.234375 L 115.265625 208.648438 C 115.265625 210.769531 116.980469 212.496094 119.101562 212.496094 Z M 122.96875 160.082031 L 138.289062 178.941406 L 122.96875 197.800781 Z M 163.527344 197.800781 L 148.207031 178.941406 L 163.527344 160.082031 Z M 159.285156 204.804688 L 127.199219 204.804688 L 143.242188 185.042969 Z M 143.242188 172.839844 L 127.199219 153.078125 L 159.285156 153.078125 L 143.242188 172.839844 " fill-opacity="1" fill-rule="nonzero"/><path fill="#100f0d" d="M 255.882812 182.140625 L 179.628906 182.140625 C 177.507812 182.140625 175.777344 183.871094 175.777344 185.988281 L 175.777344 208.648438 C 175.777344 210.769531 177.507812 212.496094 179.628906 212.496094 L 255.882812 212.496094 C 258.003906 212.496094 259.734375 210.769531 259.734375 208.648438 L 259.734375 185.988281 C 259.734375 183.871094 258.003906 182.140625 255.882812 182.140625 Z M 252.03125 204.804688 L 183.480469 204.804688 L 183.480469 189.835938 L 252.03125 189.835938 L 252.03125 204.804688 " fill-opacity="1" fill-rule="nonzero"/><path fill="#100f0d" d="M 255.882812 145.386719 L 179.628906 145.386719 C 177.507812 145.386719 175.777344 147.113281 175.777344 149.234375 L 175.777344 171.894531 C 175.777344 174.011719 177.507812 175.742188 179.628906 175.742188 L 255.882812 175.742188 C 258.003906 175.742188 259.734375 174.011719 259.734375 171.894531 L 259.734375 149.234375 C 259.734375 147.113281 258.003906 145.386719 255.882812 145.386719 Z M 252.03125 168.046875 L 183.480469 168.046875 L 183.480469 153.078125 L 252.03125 153.078125 L 252.03125 168.046875 " fill-opacity="1" fill-rule="nonzero"/></svg>