<svg xmlns="http://www.w3.org/2000/svg" xmlns:xlink="http://www.w3.org/1999/xlink" width="500" zoomAndPan="magnify" viewBox="0 0 375 374.999991" height="500" preserveAspectRatio="xMidYMid meet" version="1.0"><defs><clipPath id="d95f0daf4d"><path d="M 126.136719 112.5 L 249.136719 112.5 L 249.136719 168 L 126.136719 168 Z M 126.136719 112.5 " clip-rule="nonzero"/></clipPath><clipPath id="5cc0cb7b7e"><path d="M 126.136719 132 L 249.136719 132 L 249.136719 262.5 L 126.136719 262.5 Z M 126.136719 132 " clip-rule="nonzero"/></clipPath><clipPath id="798e68d7cf"><path d="M 126.136719 167 L 249.136719 167 L 249.136719 202 L 126.136719 202 Z M 126.136719 167 " clip-rule="nonzero"/></clipPath><clipPath id="d731585309"><path d="M 126.136719 197 L 249.136719 197 L 249.136719 232 L 126.136719 232 Z M 126.136719 197 " clip-rule="nonzero"/></clipPath></defs><g clip-path="url(#d95f0daf4d)"><path fill="#ffffff" d="M 141.800781 136.917969 C 139.871094 138.621094 139.804688 139.601562 139.804688 139.777344 C 139.804688 139.949219 139.871094 140.933594 141.800781 142.636719 C 143.71875 144.332031 146.882812 146.171875 151.378906 147.855469 C 160.328125 151.203125 173.144531 153.410156 187.636719 153.410156 C 202.128906 153.410156 214.945312 151.203125 223.890625 147.855469 C 228.390625 146.171875 231.554688 144.332031 233.472656 142.636719 C 235.398438 140.933594 235.46875 139.949219 235.46875 139.777344 C 235.46875 139.601562 235.398438 138.621094 233.472656 136.917969 C 231.554688 135.21875 228.390625 133.378906 223.890625 131.695312 C 214.945312 128.351562 202.128906 126.140625 187.636719 126.140625 C 173.144531 126.140625 160.328125 128.351562 151.378906 131.695312 C 146.882812 133.378906 143.71875 135.21875 141.800781 136.917969 Z M 146.582031 118.929688 C 157.421875 114.875 171.9375 112.503906 187.636719 112.503906 C 203.335938 112.503906 217.851562 114.875 228.691406 118.929688 C 234.085938 120.949219 238.925781 123.515625 242.539062 126.714844 C 246.148438 129.902344 249.136719 134.300781 249.136719 139.777344 C 249.136719 145.25 246.148438 149.648438 242.539062 152.839844 C 238.925781 156.035156 234.085938 158.605469 228.691406 160.621094 C 217.851562 164.679688 203.335938 167.046875 187.636719 167.046875 C 171.9375 167.046875 157.421875 164.679688 146.582031 160.621094 C 141.1875 158.605469 136.347656 156.035156 132.730469 152.839844 C 129.125 149.648438 126.136719 145.25 126.136719 139.777344 C 126.136719 134.300781 129.125 129.902344 132.730469 126.714844 C 136.347656 123.515625 141.1875 120.949219 146.582031 118.929688 Z M 146.582031 118.929688 " fill-opacity="1" fill-rule="evenodd"/></g><g clip-path="url(#5cc0cb7b7e)"><path fill="#ffffff" d="M 132.96875 132.957031 C 136.742188 132.957031 139.804688 136.011719 139.804688 139.777344 L 139.804688 235.222656 C 139.804688 235.398438 139.871094 236.378906 141.800781 238.082031 C 143.71875 239.78125 146.882812 241.621094 151.378906 243.304688 C 160.328125 246.648438 173.144531 248.859375 187.636719 248.859375 C 202.128906 248.859375 214.945312 246.648438 223.890625 243.304688 C 228.390625 241.621094 231.554688 239.78125 233.472656 238.082031 C 235.398438 236.378906 235.46875 235.398438 235.46875 235.222656 L 235.46875 139.777344 C 235.46875 136.011719 238.527344 132.957031 242.304688 132.957031 C 246.078125 132.957031 249.136719 136.011719 249.136719 139.777344 L 249.136719 235.222656 C 249.136719 240.699219 246.148438 245.097656 242.539062 248.285156 C 238.925781 251.484375 234.085938 254.050781 228.691406 256.070312 C 217.851562 260.125 203.335938 262.496094 187.636719 262.496094 C 171.9375 262.496094 157.421875 260.125 146.582031 256.070312 C 141.1875 254.050781 136.347656 251.484375 132.730469 248.285156 C 129.125 245.097656 126.136719 240.699219 126.136719 235.222656 L 126.136719 139.777344 C 126.136719 136.011719 129.195312 132.957031 132.96875 132.957031 Z M 132.96875 132.957031 " fill-opacity="1" fill-rule="evenodd"/></g><g clip-path="url(#798e68d7cf)"><path fill="#ffffff" d="M 132.96875 167.046875 C 136.742188 167.046875 139.804688 170.097656 139.804688 173.863281 C 139.804688 174.039062 139.871094 175.019531 141.800781 176.722656 C 143.71875 178.421875 146.882812 180.261719 151.378906 181.945312 C 160.328125 185.289062 173.144531 187.5 187.636719 187.5 C 202.128906 187.5 214.945312 185.289062 223.890625 181.945312 C 228.390625 180.261719 231.554688 178.421875 233.472656 176.722656 C 235.398438 175.019531 235.46875 174.039062 235.46875 173.863281 C 235.46875 170.097656 238.527344 167.046875 242.304688 167.046875 C 246.078125 167.046875 249.136719 170.097656 249.136719 173.863281 C 249.136719 179.339844 246.148438 183.738281 242.539062 186.925781 C 238.925781 190.125 234.085938 192.691406 228.691406 194.710938 C 217.851562 198.765625 203.335938 201.136719 187.636719 201.136719 C 171.9375 201.136719 157.421875 198.765625 146.582031 194.710938 C 141.1875 192.691406 136.347656 190.125 132.730469 186.925781 C 129.125 183.738281 126.136719 179.339844 126.136719 173.863281 C 126.136719 170.097656 129.195312 167.046875 132.96875 167.046875 Z M 132.96875 167.046875 " fill-opacity="1" fill-rule="evenodd"/></g><g clip-path="url(#d731585309)"><path fill="#ffffff" d="M 132.96875 197.726562 C 136.742188 197.726562 139.804688 200.777344 139.804688 204.542969 C 139.804688 204.71875 139.871094 205.699219 141.800781 207.402344 C 143.71875 209.101562 146.882812 210.941406 151.378906 212.625 C 160.328125 215.96875 173.144531 218.179688 187.636719 218.179688 C 202.128906 218.179688 214.945312 215.96875 223.890625 212.625 C 228.390625 210.941406 231.554688 209.101562 233.472656 207.402344 C 235.398438 205.699219 235.46875 204.71875 235.46875 204.542969 C 235.46875 200.777344 238.527344 197.726562 242.304688 197.726562 C 246.078125 197.726562 249.136719 200.777344 249.136719 204.542969 C 249.136719 210.019531 246.148438 214.417969 242.539062 217.605469 C 238.925781 220.804688 234.085938 223.371094 228.691406 225.390625 C 217.851562 229.445312 203.335938 231.816406 187.636719 231.816406 C 171.9375 231.816406 157.421875 229.445312 146.582031 225.390625 C 141.1875 223.371094 136.347656 220.804688 132.730469 217.605469 C 129.125 214.417969 126.136719 210.019531 126.136719 204.542969 C 126.136719 200.777344 129.195312 197.726562 132.96875 197.726562 Z M 132.96875 197.726562 " fill-opacity="1" fill-rule="evenodd"/></g></svg>